<?xml version="1.0" standalone="no"?>
<!DOCTYPE svg PUBLIC "-//W3C//DTD SVG 20010904//EN"
 "http://www.w3.org/TR/2001/REC-SVG-20010904/DTD/svg10.dtd">
<svg version="1.0" xmlns="http://www.w3.org/2000/svg"
 width="200.000000pt" height="200.000000pt" viewBox="0 0 200.000000 200.000000"
 preserveAspectRatio="xMidYMid meet">

<g transform="translate(0.000000,200.000000) scale(0.100000,-0.100000)"
fill="#000000" stroke="none">
<path d="M874 1910 c-85 -12 -136 -26 -233 -66 -211 -87 -397 -274 -485 -487
-56 -134 -69 -203 -69 -357 0 -154 13 -223 69 -357 45 -111 115 -211 207 -300
93 -89 173 -143 280 -188 132 -54 204 -68 357 -69 152 -1 242 18 378 80 148
67 291 186 381 318 50 73 107 201 132 301 33 130 32 305 -1 433 -13 51 -32
101 -42 112 -23 24 -61 26 -83 3 -19 -19 -17 -47 10 -163 27 -117 23 -273 -9
-383 -70 -237 -212 -401 -438 -506 -214 -101 -481 -93 -698 19 -176 92 -317
256 -380 442 -143 420 81 873 500 1012 148 49 340 51 484 6 38 -12 78 -19 90
-16 29 7 50 47 41 76 -20 62 -311 116 -491 90z"/>
</g>
</svg>
